<svg width="166" height="50" viewBox="0 0 166 50" fill="none" xmlns="http://www.w3.org/2000/svg">
<g id="Group 224">
<path id="Vector" d="M60.1242 40.0033H44.5819V37.0997H60.1242C60.4667 37.0805 60.7889 36.929 61.0246 36.6764C61.2603 36.4237 61.3917 36.0891 61.3917 35.7412C61.3917 35.3934 61.2603 35.0588 61.0246 34.8061C60.7889 34.5535 60.4667 34.402 60.1242 34.3828H48.8111C47.6938 34.3828 46.6222 33.9326 45.8322 33.1314C45.0421 32.3302 44.5983 31.2435 44.5983 30.1103C44.5983 28.9772 45.0421 27.8905 45.8322 27.0893C46.6222 26.288 47.6938 25.8379 48.8111 25.8379H64.3206V28.7415H48.8111C48.4553 28.7415 48.114 28.8848 47.8624 29.14C47.6108 29.3951 47.4695 29.7412 47.4695 30.102C47.4695 30.4629 47.6108 30.8089 47.8624 31.0641C48.114 31.3192 48.4553 31.4626 48.8111 31.4626H60.1242C60.6882 31.4447 61.25 31.542 61.7762 31.7486C62.3025 31.9552 62.7824 32.2669 63.1876 32.6652C63.5928 33.0635 63.9149 33.5403 64.1349 34.0673C64.3549 34.5942 64.4683 35.1607 64.4683 35.7329C64.4683 36.3052 64.3549 36.8717 64.1349 37.3986C63.9149 37.9256 63.5928 38.4024 63.1876 38.8007C62.7824 39.199 62.3025 39.5107 61.7762 39.7173C61.25 39.9239 60.6882 40.0211 60.1242 40.0033Z" fill="white"/>
<path id="Vector_2" d="M70.9302 25.8296H68.059V40.0033H70.9302V25.8296Z" fill="white"/>
<path id="Vector_3" d="M89.2374 39.995H79.5562C78.2624 39.9939 77.022 39.4722 76.1071 38.5444C75.1923 37.6166 74.6778 36.3586 74.6768 35.0464V30.7782C74.6778 29.466 75.1923 28.208 76.1071 27.2802C77.022 26.3524 78.2624 25.8307 79.5562 25.8296H94.1169V28.7042H79.5562C79.0138 28.7042 78.4937 28.9227 78.1102 29.3116C77.7266 29.7006 77.5112 30.2281 77.5112 30.7782V35.0464C77.5112 35.5965 77.7266 36.124 78.1102 36.513C78.4937 36.9019 79.0138 37.1204 79.5562 37.1204H89.2374C89.7798 37.1204 90.3 36.9019 90.6835 36.513C91.067 36.124 91.2825 35.5965 91.2825 35.0464V33.5822H80.8119V30.7118H94.1169V35.0464C94.1158 36.3586 93.6014 37.6166 92.6865 38.5444C91.7717 39.4722 90.5312 39.9939 89.2374 39.995Z" fill="white"/>
<path id="Vector_4" d="M117.316 40.0033L100.694 31.2137V40.0033H97.8593V25.8296L114.481 34.6192V25.8296H117.316V40.0033Z" fill="white"/>
<path id="Vector_5" d="M139.926 39.995H123.009C122.581 39.9967 122.164 39.8551 121.823 39.5921C121.482 39.3291 121.236 38.9594 121.123 38.5403C121.01 38.1212 121.037 37.676 121.199 37.2738C121.361 36.8717 121.65 36.5349 122.019 36.3157L134.744 28.7042H121.066V25.8337H137.983C138.41 25.8354 138.824 25.9788 139.163 26.2421C139.501 26.5054 139.746 26.874 139.858 27.2915C139.97 27.709 139.944 28.1524 139.785 28.5536C139.625 28.9548 139.34 29.2919 138.973 29.513L126.24 37.1246H139.926V39.995Z" fill="white"/>
<path id="Vector_6" d="M160.605 25.8296L153.738 30.3136L146.891 25.8296H141.505L152.278 32.8812V40.0033H155.198V32.8812L166 25.8296H160.605Z" fill="white"/>
<path id="Vector_7" d="M8.01247 23.9423V33.7896H29.6899V40.1609H1.72601V17.5709H37.6901V19.8814H4.01237V37.8298H27.4035V36.0959H5.72611V21.6194H39.3997V15.8454H32.5734V13.0455C32.5734 9.5856 31.2182 6.26744 28.8058 3.82094C26.3935 1.37444 23.1217 0 19.7101 0C16.2985 0 13.0267 1.37444 10.6144 3.82094C8.20202 6.26744 6.84679 9.5856 6.84679 13.0455V15.8454H0V41.8948H31.3832V32.0557H9.70576V25.6761H37.6819V48.2661H1.72601V45.9515H35.3996V27.999H12.0085V29.7329H33.6859V44.2177H0V50H39.3916V23.9423H8.01247ZM8.56053 13.033C8.53214 11.5296 8.7996 10.0355 9.34727 8.63819C9.89494 7.24084 10.7118 5.96826 11.7502 4.89486C12.7885 3.82146 14.0274 2.96879 15.3945 2.38671C16.7616 1.80463 18.2295 1.50483 19.7121 1.50483C21.1948 1.50483 22.6626 1.80463 24.0297 2.38671C25.3968 2.96879 26.6358 3.82146 27.6741 4.89486C28.7125 5.96826 29.5293 7.24084 30.077 8.63819C30.6247 10.0355 30.8921 11.5296 30.8637 13.033V15.8454H8.56053V13.033Z" fill="white"/>
</g>
</svg>
