<svg version="1.1" id="Layer_1" xmlns="http://www.w3.org/2000/svg" xmlns:xlink="http://www.w3.org/1999/xlink" x="0px" y="0px"
	 width="100%" viewBox="0 0 2733 425" enable-background="new 0 0 2733 425" xml:space="preserve">
<path fill="#000000" opacity="1.000000" stroke="none" 
	d="
M2032.000000,426.000000 
	C1354.666748,426.000000 677.833557,426.000000 1.000273,426.000000 
	C1.000182,284.333466 1.000182,142.666962 1.000091,1.000329 
	C911.999695,1.000220 1822.999390,1.000220 2733.999268,1.000110 
	C2733.999512,142.666336 2733.999512,284.332672 2733.999756,425.999512 
	C2500.166748,426.000000 2266.333252,426.000000 2032.000000,426.000000 
M1749.269287,399.692841 
	C1751.854370,400.635254 1754.368286,401.989227 1757.036499,402.449738 
	C1769.401611,404.583893 1779.982178,401.714172 1787.016235,390.646729 
	C1796.915527,375.070770 1789.073120,353.068695 1770.703735,348.762360 
	C1754.204224,344.894379 1737.893555,355.353943 1735.894043,373.180603 
	C1734.928223,381.791962 1740.525024,387.368713 1743.994385,394.727783 
	C1745.628418,396.167206 1747.262573,397.606628 1749.269287,399.692841 
M1126.775635,273.000061 
	C1116.947510,273.158142 1107.996338,282.525696 1107.106323,290.758484 
	C1106.537842,296.017853 1106.870239,301.392517 1107.026611,306.708771 
	C1107.373779,318.506775 1110.638428,329.604645 1115.673096,340.185608 
	C1122.660889,354.871277 1132.920532,366.898071 1145.536865,377.120850 
	C1162.873657,391.168488 1182.502686,398.783295 1204.841675,398.966339 
	C1224.502808,399.127411 1244.169678,399.214508 1263.827515,398.910492 
	C1273.824463,398.755890 1283.951050,398.512665 1293.768188,396.838043 
	C1319.463623,392.454773 1339.221924,378.092224 1354.968384,357.888397 
	C1365.676880,344.148499 1372.142334,328.658905 1374.149292,311.157715 
	C1375.683105,297.782532 1375.918579,284.434875 1372.628784,271.514038 
	C1364.789673,240.724915 1345.820923,218.294449 1317.947876,203.594421 
	C1302.934082,195.676224 1286.428711,193.032883 1269.525879,193.007095 
	C1249.696777,192.976837 1229.864746,192.790604 1210.039551,193.066193 
	C1194.147095,193.287125 1181.143066,187.465622 1169.860352,176.465775 
	C1149.125122,156.250244 1148.015503,121.238480 1168.863525,99.673164 
	C1180.102173,88.047859 1193.853027,82.033722 1210.092773,82.008156 
	C1231.254883,81.974831 1252.417358,81.948761 1273.578979,82.049881 
	C1277.152222,82.066956 1280.842285,82.283226 1284.274414,83.184479 
	C1309.102905,89.704285 1328.499023,111.786476 1328.119995,138.767639 
	C1328.072266,142.170303 1328.928955,146.021637 1330.625488,148.931061 
	C1335.719604,157.667206 1343.298706,161.479889 1353.868286,161.290436 
	C1361.996338,161.144760 1374.269897,151.521469 1374.909424,142.035278 
	C1376.009277,125.720695 1373.493896,109.887993 1366.473999,95.000793 
	C1358.848633,78.829414 1347.804932,65.512421 1333.395020,54.752266 
	C1316.802979,42.362778 1298.384521,35.405674 1277.768555,35.091274 
	C1252.613159,34.707649 1227.445557,34.840096 1202.287231,35.115131 
	C1196.163208,35.182079 1189.926514,36.153839 1183.961914,37.611118 
	C1161.045410,43.210209 1142.976196,56.199520 1128.058350,74.295349 
	C1113.894165,91.477074 1107.167725,111.370796 1106.252319,133.108017 
	C1105.817139,143.444855 1106.726929,154.248062 1109.361816,164.223465 
	C1115.872437,188.872452 1130.315430,208.365112 1151.291138,223.069016 
	C1169.334351,235.717178 1189.512329,240.856522 1211.205933,240.976685 
	C1231.034424,241.086533 1250.866455,241.185989 1270.692383,240.935944 
	C1284.379272,240.763336 1296.117798,244.727829 1307.073730,253.283936 
	C1324.260620,266.706360 1332.532104,292.005768 1325.161987,313.489716 
	C1317.733032,335.145782 1296.236816,352.001556 1272.513672,352.000244 
	C1251.018311,351.999084 1229.520630,352.178314 1208.028442,351.919922 
	C1198.240601,351.802246 1188.802246,349.351807 1180.588379,343.837616 
	C1163.800049,332.567047 1153.687866,317.440002 1153.884644,296.426239 
	C1153.916748,292.994812 1153.029297,289.254456 1151.524414,286.164581 
	C1146.745483,276.352814 1138.678833,271.884796 1126.775635,273.000061 
M92.028870,332.338562 
	C86.541473,325.500488 82.117287,318.022217 80.268524,309.419403 
	C79.011887,303.571930 78.694588,297.519592 78.010826,291.552704 
	C76.798286,280.971344 66.661087,273.705383 59.529652,272.993134 
	C44.491447,271.491180 36.471153,278.283386 32.822678,288.260773 
	C30.686693,294.101990 30.942844,299.654358 31.988445,305.460022 
	C33.304672,312.768311 33.924175,320.263824 35.921741,327.375977 
	C41.654968,347.788422 54.166965,363.661743 70.382072,376.923126 
	C88.214569,391.507233 108.493614,399.080933 131.603928,399.015198 
	C155.600708,398.946930 179.599686,399.161713 203.593536,398.888153 
	C209.724701,398.818329 215.968567,397.902710 221.939819,396.461029 
	C243.867172,391.166809 261.716339,379.473816 276.442169,362.273224 
	C289.717987,346.766327 297.905914,329.082550 299.758667,309.104828 
	C301.782104,287.287018 299.249329,265.869781 287.793701,246.312424 
	C277.223877,228.267258 262.771057,214.261627 244.539764,204.245239 
	C230.051010,196.285080 214.116730,193.387222 197.808060,193.090759 
	C177.150818,192.715256 156.478165,192.772629 135.818771,193.083435 
	C122.977753,193.276627 111.660240,189.847717 101.384262,182.088776 
	C81.016014,166.709610 74.014656,143.203979 81.461258,120.466026 
	C89.076042,97.214508 109.989388,82.002625 135.336990,82.000374 
	C156.001053,81.998543 176.665359,81.947632 197.328964,82.046265 
	C201.241394,82.064941 205.286194,82.152893 209.039902,83.110535 
	C233.690048,89.399231 253.511917,111.203491 252.946518,138.010544 
	C252.690720,150.138519 262.719696,159.687927 270.635803,160.811890 
	C285.031860,162.855896 295.421204,157.991119 298.806671,145.303818 
	C302.158936,132.740921 299.942322,120.007744 296.233765,107.690765 
	C290.270935,87.886894 278.908722,71.774696 263.077728,58.456974 
	C245.441498,43.620609 225.333771,35.465645 202.386917,35.092361 
	C177.396667,34.685837 152.393036,34.843346 127.399063,35.112095 
	C121.267250,35.178032 115.029099,36.125603 109.050682,37.551693 
	C94.431793,41.038872 81.483467,47.888710 69.842567,57.526882 
	C54.867237,69.925812 43.300407,84.627533 36.994812,103.147102 
	C32.233753,117.130356 30.479881,131.380676 31.800676,146.264740 
	C32.903652,158.694183 35.672745,170.385254 40.926392,181.642731 
	C46.700932,194.016388 54.618542,204.763306 65.089485,213.439301 
	C71.801758,219.000946 78.749336,224.449295 86.221603,228.887451 
	C101.672951,238.064789 118.913422,240.875229 136.637894,240.972351 
	C157.967896,241.089233 179.299286,240.948685 200.629440,241.050354 
	C204.197800,241.067337 207.912048,241.229218 211.306000,242.204361 
	C238.059921,249.891159 256.946533,276.308563 252.192383,305.480225 
	C248.051285,330.890137 223.266144,352.301849 197.093292,352.038635 
	C177.597717,351.842560 158.092392,351.694550 138.602814,352.088593 
	C120.258263,352.459473 104.988579,346.153381 92.028870,332.338562 
M1060.973877,369.874573 
	C1057.613403,362.074738 1054.262939,354.270660 1050.890625,346.475952 
	C1042.490601,327.060425 1034.170776,307.609619 1025.650513,288.246918 
	C1016.543701,267.550720 1007.213257,246.952911 998.039673,226.285873 
	C991.990906,212.658768 986.010071,199.001160 980.064331,185.328705 
	C971.181396,164.901840 962.341919,144.456024 953.511597,124.006363 
	C948.303528,111.945335 943.233459,99.824104 937.947388,87.797623 
	C932.267334,74.874741 926.233826,62.105431 920.669006,49.134197 
	C913.658264,32.792477 886.927673,33.185917 880.542358,46.939651 
	C876.836609,54.921597 873.153748,62.915020 869.555115,70.945648 
	C863.063049,85.433022 856.547180,99.910995 850.212952,114.467560 
	C840.366272,137.095871 830.740662,159.820435 820.873840,182.439880 
	C813.436157,199.490707 805.695679,216.409256 798.219788,233.443710 
	C789.073914,254.283493 780.118164,275.206726 770.979980,296.049927 
	C761.130859,318.514709 751.069214,340.886841 741.321655,363.395294 
	C738.977051,368.809235 737.409546,374.382050 738.861694,380.690399 
	C740.877197,389.445648 745.814270,395.377838 754.129211,397.855255 
	C762.317200,400.294800 771.453064,400.899078 777.279907,393.732758 
	C782.647766,387.131042 786.333801,378.978363 789.873291,371.109741 
	C798.681091,351.528931 806.921875,331.693909 815.508545,312.012543 
	C821.856812,297.462006 828.490479,283.035858 834.820374,268.477448 
	C845.682556,243.495178 856.380249,218.441406 867.197144,193.439331 
	C876.106567,172.846298 885.058044,152.271301 894.066650,131.721512 
	C895.703430,127.987740 897.705383,124.414078 899.998657,119.851639 
	C934.200317,197.868713 967.947876,274.850006 1001.769470,352.000000 
	C956.635803,352.000000 911.803955,351.973206 866.972290,352.031952 
	C860.978638,352.039795 855.742737,353.960938 851.141113,358.209473 
	C845.148315,363.742371 843.944885,370.439178 843.868103,378.151459 
	C843.753479,389.678436 854.912231,398.923920 864.793762,398.943207 
	C923.625916,399.058105 982.458496,399.042694 1041.290405,398.877167 
	C1044.313477,398.868683 1047.675537,397.631561 1050.290283,396.013885 
	C1059.697510,390.193878 1062.915771,381.476440 1060.973877,369.874573 
M361.000122,377.315796 
	C362.630402,387.937134 367.632904,395.734955 378.762817,398.262573 
	C387.719299,400.296631 398.212982,399.550690 403.512482,389.816010 
	C408.094482,381.399261 411.740356,372.467285 415.692566,363.714569 
	C421.170746,351.582520 426.638550,339.444305 431.948303,327.238007 
	C440.512695,307.549866 448.881683,287.776703 457.455475,268.092651 
	C462.770111,255.891052 468.391479,243.823257 473.731506,231.632462 
	C482.541840,211.519272 491.264862,191.367645 499.968018,171.207779 
	C505.111084,159.294434 510.072845,147.302460 515.262878,135.409866 
	C517.453247,130.390701 520.021423,125.536354 522.789734,119.842178 
	C556.984985,197.867905 590.646362,274.675598 624.534180,352.000000 
	C621.811096,352.000000 619.987183,352.000000 618.163208,352.000000 
	C575.999817,352.000000 533.833435,352.287079 491.674652,351.845856 
	C476.716705,351.689331 464.276703,363.451996 466.759399,379.974701 
	C468.183380,389.451660 478.986023,399.241211 488.465332,399.181641 
	C546.291870,398.818115 604.121887,399.010681 661.950684,398.992859 
	C677.503784,398.988068 688.315491,383.657471 682.915283,369.675568 
	C674.493713,347.870911 664.819336,326.546478 655.525024,305.083862 
	C649.216980,290.517273 642.557495,276.103119 636.222717,261.547913 
	C627.654297,241.860901 619.339844,222.063232 610.742065,202.389206 
	C603.036804,184.757446 595.031250,167.257141 587.275208,149.647293 
	C578.165588,128.964157 569.141602,108.242996 560.159790,87.503967 
	C555.004089,75.599266 550.120789,63.575752 544.896240,51.701931 
	C541.324768,43.584930 535.522095,37.888332 526.222473,37.032345 
	C515.601379,36.054722 506.655884,38.885654 501.994324,49.428467 
	C490.457703,75.520058 479.101929,101.691551 467.637726,127.815239 
	C455.786346,154.821121 443.868317,181.797745 432.025085,208.807175 
	C421.467377,232.884888 410.997589,257.001160 400.442047,281.079834 
	C389.243408,306.625458 377.861145,332.091675 366.855042,357.719727 
	C364.289398,363.693909 362.919861,370.181824 361.000122,377.315796 
M2254.312988,82.999985 
	C2256.893066,83.342773 2259.496338,83.562271 2262.049316,84.047325 
	C2289.675293,89.295776 2313.356934,102.200630 2333.176758,121.905220 
	C2340.144287,128.832260 2348.743896,129.965820 2356.332275,127.493431 
	C2374.853516,121.458885 2378.176025,100.947319 2366.638672,88.237625 
	C2363.221924,84.473587 2359.407959,80.953148 2355.320801,77.937958 
	C2345.581787,70.753113 2335.977783,63.245831 2325.581299,57.121708 
	C2306.956787,46.150887 2286.751953,39.529331 2265.133545,36.821960 
	C2249.169678,34.822701 2233.353516,34.611053 2217.355713,35.887222 
	C2201.911865,37.119217 2187.175049,40.825226 2172.638184,45.943127 
	C2151.428711,53.410282 2132.872559,65.348007 2116.487549,80.354263 
	C2106.585205,89.423355 2097.639404,99.735001 2089.367676,110.348572 
	C2067.088135,138.936615 2056.997559,172.125107 2055.110352,207.912582 
	C2054.270996,223.828842 2055.797119,239.635056 2058.842285,255.405518 
	C2064.879395,286.672394 2079.041504,313.782898 2099.993652,337.262421 
	C2118.262207,357.734558 2139.612793,374.319763 2165.245361,385.140686 
	C2183.607910,392.892548 2202.660156,397.612885 2222.360596,398.783752 
	C2239.266357,399.788452 2256.244385,399.307098 2273.102539,396.118103 
	C2295.225830,391.933044 2315.721191,383.862762 2334.547852,371.756104 
	C2343.248535,366.161072 2351.404297,359.627808 2359.348633,352.972656 
	C2367.071777,346.502441 2373.817383,339.337341 2373.108643,327.830475 
	C2372.492920,317.838562 2367.278564,311.143036 2358.771484,307.525299 
	C2351.245605,304.325012 2343.108887,304.524689 2335.986328,309.594238 
	C2333.062012,311.675751 2330.413330,314.187469 2327.834229,316.703400 
	C2317.757324,326.532654 2306.165039,334.128113 2293.413574,339.935242 
	C2269.551758,350.802063 2244.433838,354.201447 2218.593750,350.855804 
	C2201.273926,348.613342 2184.850098,343.054932 2169.720459,333.997955 
	C2146.372070,320.021210 2128.476807,300.944824 2116.015381,276.808746 
	C2109.927734,265.017914 2106.072266,252.411987 2104.086426,239.324112 
	C2102.959229,231.896957 2102.194092,224.346024 2102.145508,216.845139 
	C2102.104736,210.517883 2103.424805,204.190521 2103.979980,197.848953 
	C2105.277100,183.031555 2109.949951,169.133499 2116.606201,156.061081 
	C2125.662598,138.274689 2138.246582,123.004601 2153.950439,110.679688 
	C2178.435547,91.462830 2206.463623,81.937202 2237.642578,82.044502 
	C2242.894531,82.062576 2248.144043,82.666618 2254.312988,82.999985 
M1473.500000,82.000000 
	C1506.989868,81.999954 1540.479980,81.948273 1573.969360,82.067329 
	C1578.008057,82.081680 1582.109497,82.717644 1586.069214,83.581871 
	C1603.737549,87.438065 1617.911499,96.859093 1628.726929,111.265236 
	C1641.751709,128.614258 1645.868652,148.058701 1641.317017,169.184006 
	C1637.793335,185.539124 1629.218018,198.877457 1616.144287,209.409302 
	C1604.187256,219.041428 1590.848022,224.927567 1575.338745,224.972000 
	C1543.015503,225.064590 1510.691284,224.915802 1478.368286,225.045898 
	C1467.126465,225.091141 1455.872070,225.415070 1444.650635,226.073868 
	C1434.408691,226.675156 1425.010376,237.141693 1425.006714,247.353226 
	C1424.990967,290.840088 1424.994141,334.326965 1425.026001,377.813812 
	C1425.027100,379.250671 1425.305054,380.712219 1425.634644,382.119934 
	C1427.791016,391.326935 1438.170166,399.654724 1449.927246,399.304901 
	C1460.487183,398.990692 1472.284668,387.518707 1472.151733,376.975433 
	C1471.737793,344.157227 1472.000000,311.330475 1472.000000,278.507050 
	C1472.000000,276.742096 1472.000000,274.977112 1472.000000,273.000061 
	C1473.542114,273.000061 1474.522705,273.007904 1475.502930,272.998962 
	C1511.909424,272.666962 1548.318970,272.516693 1584.720703,271.900238 
	C1597.427612,271.685089 1609.486572,267.828644 1620.981201,262.495789 
	C1638.921387,254.172501 1653.856201,241.897385 1665.901367,226.360245 
	C1671.286377,219.414062 1676.001709,211.751801 1679.818237,203.834702 
	C1684.925293,193.240356 1687.881226,181.908127 1689.165405,170.040695 
	C1690.914551,153.873581 1690.715820,137.847260 1686.534790,122.190628 
	C1679.112183,94.394318 1662.367065,72.902229 1639.466064,56.028522 
	C1621.572510,42.844486 1601.305664,35.437443 1579.163818,35.159718 
	C1535.850220,34.616432 1492.522095,35.283215 1449.207275,34.790936 
	C1439.016479,34.675110 1428.118896,41.533871 1425.450562,53.008366 
	C1421.844849,68.513977 1434.424683,82.671631 1447.510864,82.071205 
	C1455.824097,81.689781 1464.169189,81.999962 1473.500000,82.000000 
M2573.041016,398.998718 
	C2585.893066,396.252075 2592.182373,386.373779 2592.146729,373.722046 
	C2591.877930,278.242798 2592.000000,182.762421 2592.000000,87.282402 
	C2592.000000,85.539024 2592.000000,83.795654 2592.000000,82.000000 
	C2624.723877,82.000000 2656.716309,82.000038 2688.708984,81.999985 
	C2703.577393,81.999962 2710.747803,76.374786 2714.020020,61.646606 
	C2717.423828,46.326805 2704.066406,35.000595 2692.571289,35.000477 
	C2609.921875,34.999630 2527.272461,34.996353 2444.623047,35.027748 
	C2443.026123,35.028355 2441.403809,35.329273 2439.836426,35.682022 
	C2430.647705,37.750046 2421.942627,48.157188 2422.832031,59.997124 
	C2423.705322,71.626900 2433.458252,81.997284 2445.094238,81.998619 
	C2476.587646,82.002228 2508.081055,81.999947 2539.574463,82.000000 
	C2541.331787,82.000000 2543.089355,82.000000 2545.000000,82.000000 
	C2545.000000,84.447380 2545.000000,86.265961 2545.000000,88.084541 
	C2545.000000,183.731201 2544.961670,279.377899 2545.129150,375.024323 
	C2545.136475,379.194366 2546.218994,383.807983 2548.210938,387.441956 
	C2553.292725,396.712738 2561.751221,400.132111 2573.041016,398.998718 
M1908.500000,83.000252 
	C1931.664307,83.000244 1954.828979,83.070129 1977.992432,82.929031 
	C1981.702759,82.906433 1985.601440,82.505470 1989.080322,81.310715 
	C2003.249146,76.444878 2006.575073,66.731941 2004.814697,53.464645 
	C2003.449463,43.175285 1993.118652,34.971550 1982.052246,34.980942 
	C1930.724243,35.024494 1879.395508,34.891567 1828.069092,35.173344 
	C1823.101440,35.200619 1817.668701,36.760952 1813.276001,39.134731 
	C1800.031738,46.291725 1799.221802,68.397346 1811.243652,77.254021 
	C1817.147949,81.603699 1823.400391,82.834236 1830.008911,82.898193 
	C1855.837158,83.148117 1881.669312,83.000252 1908.500000,83.000252 
M1773.501709,194.000000 
	C1769.672119,194.000000 1765.837769,194.121780 1762.013794,193.975586 
	C1752.996826,193.630905 1746.898193,198.565521 1742.909668,205.711273 
	C1734.143188,221.416855 1744.962769,240.945908 1763.636719,240.973816 
	C1814.587280,241.049973 1865.538208,240.924911 1916.488403,241.075867 
	C1924.729248,241.100281 1931.455322,238.903152 1937.063354,232.575943 
	C1942.590332,226.339920 1944.653931,216.955841 1941.364746,208.843719 
	C1937.492432,199.293549 1930.198853,194.002731 1920.859131,194.001953 
	C1872.073120,193.997894 1823.286987,194.000031 1773.501709,194.000000 
M1961.500000,399.000000 
	C1968.830811,398.999969 1976.161987,399.043182 1983.491943,398.966064 
	C1985.092773,398.949249 1986.748535,398.695251 1988.277954,398.223358 
	C1999.727905,394.690308 2005.001709,387.061279 2005.000000,374.195770 
	C2004.998413,362.036530 1994.969238,352.003510 1982.784668,352.002289 
	C1930.803101,351.997070 1878.821289,352.056854 1826.839966,351.933014 
	C1819.799683,351.916260 1814.111572,354.015991 1809.255249,359.160309 
	C1803.004395,365.781555 1800.732666,376.216370 1804.359619,384.791626 
	C1807.444214,392.083740 1816.393311,399.192963 1825.548584,399.133240 
	C1870.530762,398.839844 1915.515869,399.000000 1961.500000,399.000000 
M1973.995361,191.466705 
	C1971.959595,191.985291 1969.725830,192.129318 1967.920410,193.083710 
	C1956.822021,198.950897 1951.758789,211.342041 1955.056519,224.620193 
	C1957.932373,236.199585 1968.097656,244.426712 1980.427856,244.936630 
	C1997.728394,245.652054 2008.831909,233.831802 2009.055176,215.523087 
	C2009.243530,200.094040 1993.032104,185.332413 1973.995361,191.466705 
M1749.747925,82.959709 
	C1756.517456,87.158142 1764.172607,86.897537 1771.312500,85.616524 
	C1780.674194,83.936890 1789.726562,72.648018 1791.066040,64.035660 
	C1793.147705,50.653191 1783.339600,38.237446 1776.083130,34.068325 
	C1766.213379,28.397690 1751.333008,31.449867 1743.380249,39.784927 
	C1732.044556,51.665974 1733.762085,73.515892 1749.747925,82.959709 
z"/>
<path fill="#FFFFFF" opacity="1.000000" stroke="none" 
	d="
M1127.235107,273.000031 
	C1138.678833,271.884796 1146.745483,276.352814 1151.524414,286.164581 
	C1153.029297,289.254456 1153.916748,292.994812 1153.884644,296.426239 
	C1153.687866,317.440002 1163.800049,332.567047 1180.588379,343.837616 
	C1188.802246,349.351807 1198.240601,351.802246 1208.028442,351.919922 
	C1229.520630,352.178314 1251.018311,351.999084 1272.513672,352.000244 
	C1296.236816,352.001556 1317.733032,335.145782 1325.161987,313.489716 
	C1332.532104,292.005768 1324.260620,266.706360 1307.073730,253.283936 
	C1296.117798,244.727829 1284.379272,240.763336 1270.692383,240.935944 
	C1250.866455,241.185989 1231.034424,241.086533 1211.205933,240.976685 
	C1189.512329,240.856522 1169.334351,235.717178 1151.291138,223.069016 
	C1130.315430,208.365112 1115.872437,188.872452 1109.361816,164.223465 
	C1106.726929,154.248062 1105.817139,143.444855 1106.252319,133.108017 
	C1107.167725,111.370796 1113.894165,91.477074 1128.058350,74.295349 
	C1142.976196,56.199520 1161.045410,43.210209 1183.961914,37.611118 
	C1189.926514,36.153839 1196.163208,35.182079 1202.287231,35.115131 
	C1227.445557,34.840096 1252.613159,34.707649 1277.768555,35.091274 
	C1298.384521,35.405674 1316.802979,42.362778 1333.395020,54.752266 
	C1347.804932,65.512421 1358.848633,78.829414 1366.473999,95.000793 
	C1373.493896,109.887993 1376.009277,125.720695 1374.909424,142.035278 
	C1374.269897,151.521469 1361.996338,161.144760 1353.868286,161.290436 
	C1343.298706,161.479889 1335.719604,157.667206 1330.625488,148.931061 
	C1328.928955,146.021637 1328.072266,142.170303 1328.119995,138.767639 
	C1328.499023,111.786476 1309.102905,89.704285 1284.274414,83.184479 
	C1280.842285,82.283226 1277.152222,82.066956 1273.578979,82.049881 
	C1252.417358,81.948761 1231.254883,81.974831 1210.092773,82.008156 
	C1193.853027,82.033722 1180.102173,88.047859 1168.863525,99.673164 
	C1148.015503,121.238480 1149.125122,156.250244 1169.860352,176.465775 
	C1181.143066,187.465622 1194.147095,193.287125 1210.039551,193.066193 
	C1229.864746,192.790604 1249.696777,192.976837 1269.525879,193.007095 
	C1286.428711,193.032883 1302.934082,195.676224 1317.947876,203.594421 
	C1345.820923,218.294449 1364.789673,240.724915 1372.628784,271.514038 
	C1375.918579,284.434875 1375.683105,297.782532 1374.149292,311.157715 
	C1372.142334,328.658905 1365.676880,344.148499 1354.968384,357.888397 
	C1339.221924,378.092224 1319.463623,392.454773 1293.768188,396.838043 
	C1283.951050,398.512665 1273.824463,398.755890 1263.827515,398.910492 
	C1244.169678,399.214508 1224.502808,399.127411 1204.841675,398.966339 
	C1182.502686,398.783295 1162.873657,391.168488 1145.536865,377.120850 
	C1132.920532,366.898071 1122.660889,354.871277 1115.673096,340.185608 
	C1110.638428,329.604645 1107.373779,318.506775 1107.026611,306.708771 
	C1106.870239,301.392517 1106.537842,296.017853 1107.106323,290.758484 
	C1107.996338,282.525696 1116.947510,273.158142 1127.235107,273.000031 
z"/>
<path fill="#FFFFFF" opacity="1.000000" stroke="none" 
	d="
M92.228065,332.641418 
	C104.988579,346.153381 120.258263,352.459473 138.602814,352.088593 
	C158.092392,351.694550 177.597717,351.842560 197.093292,352.038635 
	C223.266144,352.301849 248.051285,330.890137 252.192383,305.480225 
	C256.946533,276.308563 238.059921,249.891159 211.306000,242.204361 
	C207.912048,241.229218 204.197800,241.067337 200.629440,241.050354 
	C179.299286,240.948685 157.967896,241.089233 136.637894,240.972351 
	C118.913422,240.875229 101.672951,238.064789 86.221603,228.887451 
	C78.749336,224.449295 71.801758,219.000946 65.089485,213.439301 
	C54.618542,204.763306 46.700932,194.016388 40.926392,181.642731 
	C35.672745,170.385254 32.903652,158.694183 31.800676,146.264740 
	C30.479881,131.380676 32.233753,117.130356 36.994812,103.147102 
	C43.300407,84.627533 54.867237,69.925812 69.842567,57.526882 
	C81.483467,47.888710 94.431793,41.038872 109.050682,37.551693 
	C115.029099,36.125603 121.267250,35.178032 127.399063,35.112095 
	C152.393036,34.843346 177.396667,34.685837 202.386917,35.092361 
	C225.333771,35.465645 245.441498,43.620609 263.077728,58.456974 
	C278.908722,71.774696 290.270935,87.886894 296.233765,107.690765 
	C299.942322,120.007744 302.158936,132.740921 298.806671,145.303818 
	C295.421204,157.991119 285.031860,162.855896 270.635803,160.811890 
	C262.719696,159.687927 252.690720,150.138519 252.946518,138.010544 
	C253.511917,111.203491 233.690048,89.399231 209.039902,83.110535 
	C205.286194,82.152893 201.241394,82.064941 197.328964,82.046265 
	C176.665359,81.947632 156.001053,81.998543 135.336990,82.000374 
	C109.989388,82.002625 89.076042,97.214508 81.461258,120.466026 
	C74.014656,143.203979 81.016014,166.709610 101.384262,182.088776 
	C111.660240,189.847717 122.977753,193.276627 135.818771,193.083435 
	C156.478165,192.772629 177.150818,192.715256 197.808060,193.090759 
	C214.116730,193.387222 230.051010,196.285080 244.539764,204.245239 
	C262.771057,214.261627 277.223877,228.267258 287.793701,246.312424 
	C299.249329,265.869781 301.782104,287.287018 299.758667,309.104828 
	C297.905914,329.082550 289.717987,346.766327 276.442169,362.273224 
	C261.716339,379.473816 243.867172,391.166809 221.939819,396.461029 
	C215.968567,397.902710 209.724701,398.818329 203.593536,398.888153 
	C179.599686,399.161713 155.600708,398.946930 131.603928,399.015198 
	C108.493614,399.080933 88.214569,391.507233 70.382072,376.923126 
	C54.166965,363.661743 41.654968,347.788422 35.921741,327.375977 
	C33.924175,320.263824 33.304672,312.768311 31.988445,305.460022 
	C30.942844,299.654358 30.686693,294.101990 32.822678,288.260773 
	C36.471153,278.283386 44.491447,271.491180 59.529652,272.993134 
	C66.661087,273.705383 76.798286,280.971344 78.010826,291.552704 
	C78.694588,297.519592 79.011887,303.571930 80.268524,309.419403 
	C82.117287,318.022217 86.541473,325.500488 92.228065,332.641418 
z"/>
<path fill="#FFFFFF" opacity="1.000000" stroke="none" 
	d="
M1060.985962,370.297394 
	C1062.915771,381.476440 1059.697510,390.193878 1050.290283,396.013885 
	C1047.675537,397.631561 1044.313477,398.868683 1041.290405,398.877167 
	C982.458496,399.042694 923.625916,399.058105 864.793762,398.943207 
	C854.912231,398.923920 843.753479,389.678436 843.868103,378.151459 
	C843.944885,370.439178 845.148315,363.742371 851.141113,358.209473 
	C855.742737,353.960938 860.978638,352.039795 866.972290,352.031952 
	C911.803955,351.973206 956.635803,352.000000 1001.769470,352.000000 
	C967.947876,274.850006 934.200317,197.868713 899.998657,119.851639 
	C897.705383,124.414078 895.703430,127.987740 894.066650,131.721512 
	C885.058044,152.271301 876.106567,172.846298 867.197144,193.439331 
	C856.380249,218.441406 845.682556,243.495178 834.820374,268.477448 
	C828.490479,283.035858 821.856812,297.462006 815.508545,312.012543 
	C806.921875,331.693909 798.681091,351.528931 789.873291,371.109741 
	C786.333801,378.978363 782.647766,387.131042 777.279907,393.732758 
	C771.453064,400.899078 762.317200,400.294800 754.129211,397.855255 
	C745.814270,395.377838 740.877197,389.445648 738.861694,380.690399 
	C737.409546,374.382050 738.977051,368.809235 741.321655,363.395294 
	C751.069214,340.886841 761.130859,318.514709 770.979980,296.049927 
	C780.118164,275.206726 789.073914,254.283493 798.219788,233.443710 
	C805.695679,216.409256 813.436157,199.490707 820.873840,182.439880 
	C830.740662,159.820435 840.366272,137.095871 850.212952,114.467560 
	C856.547180,99.910995 863.063049,85.433022 869.555115,70.945648 
	C873.153748,62.915020 876.836609,54.921597 880.542358,46.939651 
	C886.927673,33.185917 913.658264,32.792477 920.669006,49.134197 
	C926.233826,62.105431 932.267334,74.874741 937.947388,87.797623 
	C943.233459,99.824104 948.303528,111.945335 953.511597,124.006363 
	C962.341919,144.456024 971.181396,164.901840 980.064331,185.328705 
	C986.010071,199.001160 991.990906,212.658768 998.039673,226.285873 
	C1007.213257,246.952911 1016.543701,267.550720 1025.650513,288.246918 
	C1034.170776,307.609619 1042.490601,327.060425 1050.890625,346.475952 
	C1054.262939,354.270660 1057.613403,362.074738 1060.985962,370.297394 
z"/>
<path fill="#FFFFFF" opacity="1.000000" stroke="none" 
	d="
M361.000061,376.874573 
	C362.919861,370.181824 364.289398,363.693909 366.855042,357.719727 
	C377.861145,332.091675 389.243408,306.625458 400.442047,281.079834 
	C410.997589,257.001160 421.467377,232.884888 432.025085,208.807175 
	C443.868317,181.797745 455.786346,154.821121 467.637726,127.815239 
	C479.101929,101.691551 490.457703,75.520058 501.994324,49.428467 
	C506.655884,38.885654 515.601379,36.054722 526.222473,37.032345 
	C535.522095,37.888332 541.324768,43.584930 544.896240,51.701931 
	C550.120789,63.575752 555.004089,75.599266 560.159790,87.503967 
	C569.141602,108.242996 578.165588,128.964157 587.275208,149.647293 
	C595.031250,167.257141 603.036804,184.757446 610.742065,202.389206 
	C619.339844,222.063232 627.654297,241.860901 636.222717,261.547913 
	C642.557495,276.103119 649.216980,290.517273 655.525024,305.083862 
	C664.819336,326.546478 674.493713,347.870911 682.915283,369.675568 
	C688.315491,383.657471 677.503784,398.988068 661.950684,398.992859 
	C604.121887,399.010681 546.291870,398.818115 488.465332,399.181641 
	C478.986023,399.241211 468.183380,389.451660 466.759399,379.974701 
	C464.276703,363.451996 476.716705,351.689331 491.674652,351.845856 
	C533.833435,352.287079 575.999817,352.000000 618.163208,352.000000 
	C619.987183,352.000000 621.811096,352.000000 624.534180,352.000000 
	C590.646362,274.675598 556.984985,197.867905 522.789734,119.842178 
	C520.021423,125.536354 517.453247,130.390701 515.262878,135.409866 
	C510.072845,147.302460 505.111084,159.294434 499.968018,171.207779 
	C491.264862,191.367645 482.541840,211.519272 473.731506,231.632462 
	C468.391479,243.823257 462.770111,255.891052 457.455475,268.092651 
	C448.881683,287.776703 440.512695,307.549866 431.948303,327.238007 
	C426.638550,339.444305 421.170746,351.582520 415.692566,363.714569 
	C411.740356,372.467285 408.094482,381.399261 403.512482,389.816010 
	C398.212982,399.550690 387.719299,400.296631 378.762817,398.262573 
	C367.632904,395.734955 362.630402,387.937134 361.000061,376.874573 
z"/>
<path fill="#FFFFFF" opacity="1.000000" stroke="none" 
	d="
M2253.854004,82.999954 
	C2248.144043,82.666618 2242.894531,82.062576 2237.642578,82.044502 
	C2206.463623,81.937202 2178.435547,91.462830 2153.950439,110.679688 
	C2138.246582,123.004601 2125.662598,138.274689 2116.606201,156.061081 
	C2109.949951,169.133499 2105.277100,183.031555 2103.979980,197.848953 
	C2103.424805,204.190521 2102.104736,210.517883 2102.145508,216.845139 
	C2102.194092,224.346024 2102.959229,231.896957 2104.086426,239.324112 
	C2106.072266,252.411987 2109.927734,265.017914 2116.015381,276.808746 
	C2128.476807,300.944824 2146.372070,320.021210 2169.720459,333.997955 
	C2184.850098,343.054932 2201.273926,348.613342 2218.593750,350.855804 
	C2244.433838,354.201447 2269.551758,350.802063 2293.413574,339.935242 
	C2306.165039,334.128113 2317.757324,326.532654 2327.834229,316.703400 
	C2330.413330,314.187469 2333.062012,311.675751 2335.986328,309.594238 
	C2343.108887,304.524689 2351.245605,304.325012 2358.771484,307.525299 
	C2367.278564,311.143036 2372.492920,317.838562 2373.108643,327.830475 
	C2373.817383,339.337341 2367.071777,346.502441 2359.348633,352.972656 
	C2351.404297,359.627808 2343.248535,366.161072 2334.547852,371.756104 
	C2315.721191,383.862762 2295.225830,391.933044 2273.102539,396.118103 
	C2256.244385,399.307098 2239.266357,399.788452 2222.360596,398.783752 
	C2202.660156,397.612885 2183.607910,392.892548 2165.245361,385.140686 
	C2139.612793,374.319763 2118.262207,357.734558 2099.993652,337.262421 
	C2079.041504,313.782898 2064.879395,286.672394 2058.842285,255.405518 
	C2055.797119,239.635056 2054.270996,223.828842 2055.110352,207.912582 
	C2056.997559,172.125107 2067.088135,138.936615 2089.367676,110.348572 
	C2097.639404,99.735001 2106.585205,89.423355 2116.487549,80.354263 
	C2132.872559,65.348007 2151.428711,53.410282 2172.638184,45.943127 
	C2187.175049,40.825226 2201.911865,37.119217 2217.355713,35.887222 
	C2233.353516,34.611053 2249.169678,34.822701 2265.133545,36.821960 
	C2286.751953,39.529331 2306.956787,46.150887 2325.581299,57.121708 
	C2335.977783,63.245831 2345.581787,70.753113 2355.320801,77.937958 
	C2359.407959,80.953148 2363.221924,84.473587 2366.638672,88.237625 
	C2378.176025,100.947319 2374.853516,121.458885 2356.332275,127.493431 
	C2348.743896,129.965820 2340.144287,128.832260 2333.176758,121.905220 
	C2313.356934,102.200630 2289.675293,89.295776 2262.049316,84.047325 
	C2259.496338,83.562271 2256.893066,83.342773 2253.854004,82.999954 
z"/>
<path fill="#FFFFFF" opacity="1.000000" stroke="none" 
	d="
M1473.000000,82.000000 
	C1464.169189,81.999962 1455.824097,81.689781 1447.510864,82.071205 
	C1434.424683,82.671631 1421.844849,68.513977 1425.450562,53.008366 
	C1428.118896,41.533871 1439.016479,34.675110 1449.207275,34.790936 
	C1492.522095,35.283215 1535.850220,34.616432 1579.163818,35.159718 
	C1601.305664,35.437443 1621.572510,42.844486 1639.466064,56.028522 
	C1662.367065,72.902229 1679.112183,94.394318 1686.534790,122.190628 
	C1690.715820,137.847260 1690.914551,153.873581 1689.165405,170.040695 
	C1687.881226,181.908127 1684.925293,193.240356 1679.818237,203.834702 
	C1676.001709,211.751801 1671.286377,219.414062 1665.901367,226.360245 
	C1653.856201,241.897385 1638.921387,254.172501 1620.981201,262.495789 
	C1609.486572,267.828644 1597.427612,271.685089 1584.720703,271.900238 
	C1548.318970,272.516693 1511.909424,272.666962 1475.502930,272.998962 
	C1474.522705,273.007904 1473.542114,273.000061 1472.000000,273.000061 
	C1472.000000,274.977112 1472.000000,276.742096 1472.000000,278.507050 
	C1472.000000,311.330475 1471.737793,344.157227 1472.151733,376.975433 
	C1472.284668,387.518707 1460.487183,398.990692 1449.927246,399.304901 
	C1438.170166,399.654724 1427.791016,391.326935 1425.634644,382.119934 
	C1425.305054,380.712219 1425.027100,379.250671 1425.026001,377.813812 
	C1424.994141,334.326965 1424.990967,290.840088 1425.006714,247.353226 
	C1425.010376,237.141693 1434.408691,226.675156 1444.650635,226.073868 
	C1455.872070,225.415070 1467.126465,225.091141 1478.368286,225.045898 
	C1510.691284,224.915802 1543.015503,225.064590 1575.338745,224.972000 
	C1590.848022,224.927567 1604.187256,219.041428 1616.144287,209.409302 
	C1629.218018,198.877457 1637.793335,185.539124 1641.317017,169.184006 
	C1645.868652,148.058701 1641.751709,128.614258 1628.726929,111.265236 
	C1617.911499,96.859093 1603.737549,87.438065 1586.069214,83.581871 
	C1582.109497,82.717644 1578.008057,82.081680 1573.969360,82.067329 
	C1540.479980,81.948273 1506.989868,81.999954 1473.000000,82.000000 
z"/>
<path fill="#FFFFFF" opacity="1.000000" stroke="none" 
	d="
M2572.590820,398.999237 
	C2561.751221,400.132111 2553.292725,396.712738 2548.210938,387.441956 
	C2546.218994,383.807983 2545.136475,379.194366 2545.129150,375.024323 
	C2544.961670,279.377899 2545.000000,183.731201 2545.000000,88.084541 
	C2545.000000,86.265961 2545.000000,84.447380 2545.000000,82.000000 
	C2543.089355,82.000000 2541.331787,82.000000 2539.574463,82.000000 
	C2508.081055,81.999947 2476.587646,82.002228 2445.094238,81.998619 
	C2433.458252,81.997284 2423.705322,71.626900 2422.832031,59.997124 
	C2421.942627,48.157188 2430.647705,37.750046 2439.836426,35.682022 
	C2441.403809,35.329273 2443.026123,35.028355 2444.623047,35.027748 
	C2527.272461,34.996353 2609.921875,34.999630 2692.571289,35.000477 
	C2704.066406,35.000595 2717.423828,46.326805 2714.020020,61.646606 
	C2710.747803,76.374786 2703.577393,81.999962 2688.708984,81.999985 
	C2656.716309,82.000038 2624.723877,82.000000 2592.000000,82.000000 
	C2592.000000,83.795654 2592.000000,85.539024 2592.000000,87.282402 
	C2592.000000,182.762421 2591.877930,278.242798 2592.146729,373.722046 
	C2592.182373,386.373779 2585.893066,396.252075 2572.590820,398.999237 
z"/>
<path fill="#FF9600" opacity="1.000000" stroke="none" 
	d="
M1908.000000,83.000252 
	C1881.669312,83.000252 1855.837158,83.148117 1830.008911,82.898193 
	C1823.400391,82.834236 1817.147949,81.603699 1811.243652,77.254021 
	C1799.221802,68.397346 1800.031738,46.291725 1813.276001,39.134731 
	C1817.668701,36.760952 1823.101440,35.200619 1828.069092,35.173344 
	C1879.395508,34.891567 1930.724243,35.024494 1982.052246,34.980942 
	C1993.118652,34.971550 2003.449463,43.175285 2004.814697,53.464645 
	C2006.575073,66.731941 2003.249146,76.444878 1989.080322,81.310715 
	C1985.601440,82.505470 1981.702759,82.906433 1977.992432,82.929031 
	C1954.828979,83.070129 1931.664307,83.000244 1908.000000,83.000252 
z"/>
<path fill="#FF0000" opacity="1.000000" stroke="none" 
	d="
M1774.001343,194.000000 
	C1823.286987,194.000031 1872.073120,193.997894 1920.859131,194.001953 
	C1930.198853,194.002731 1937.492432,199.293549 1941.364746,208.843719 
	C1944.653931,216.955841 1942.590332,226.339920 1937.063354,232.575943 
	C1931.455322,238.903152 1924.729248,241.100281 1916.488403,241.075867 
	C1865.538208,240.924911 1814.587280,241.049973 1763.636719,240.973816 
	C1744.962769,240.945908 1734.143188,221.416855 1742.909668,205.711273 
	C1746.898193,198.565521 1752.996826,193.630905 1762.013794,193.975586 
	C1765.837769,194.121780 1769.672119,194.000000 1774.001343,194.000000 
z"/>
<path fill="#2796D3" opacity="1.000000" stroke="none" 
	d="
M1961.000000,399.000000 
	C1915.515869,399.000000 1870.530762,398.839844 1825.548584,399.133240 
	C1816.393311,399.192963 1807.444214,392.083740 1804.359619,384.791626 
	C1800.732666,376.216370 1803.004395,365.781555 1809.255249,359.160309 
	C1814.111572,354.015991 1819.799683,351.916260 1826.839966,351.933014 
	C1878.821289,352.056854 1930.803101,351.997070 1982.784668,352.002289 
	C1994.969238,352.003510 2004.998413,362.036530 2005.000000,374.195770 
	C2005.001709,387.061279 1999.727905,394.690308 1988.277954,398.223358 
	C1986.748535,398.695251 1985.092773,398.949249 1983.491943,398.966064 
	C1976.161987,399.043182 1968.830811,398.999969 1961.000000,399.000000 
z"/>
<path fill="#FF0000" opacity="1.000000" stroke="none" 
	d="
M1974.318604,191.182236 
	C1993.032104,185.332413 2009.243530,200.094040 2009.055176,215.523087 
	C2008.831909,233.831802 1997.728394,245.652054 1980.427856,244.936630 
	C1968.097656,244.426712 1957.932373,236.199585 1955.056519,224.620193 
	C1951.758789,211.342041 1956.822021,198.950897 1967.920410,193.083710 
	C1969.725830,192.129318 1971.959595,191.985291 1974.318604,191.182236 
M1999.958252,213.113266 
	C1997.994263,207.318344 1994.821899,202.327118 1988.924805,200.101151 
	C1976.935059,195.575500 1964.744141,202.780502 1963.100586,215.480515 
	C1961.645386,226.723770 1973.493896,238.937790 1985.971924,235.036331 
	C1996.606323,231.711349 2000.016602,226.463989 1999.958252,213.113266 
z"/>
<path fill="#FF9600" opacity="1.000000" stroke="none" 
	d="
M1749.415283,82.771912 
	C1733.762085,73.515892 1732.044556,51.665974 1743.380249,39.784927 
	C1751.333008,31.449867 1766.213379,28.397690 1776.083130,34.068325 
	C1783.339600,38.237446 1793.147705,50.653191 1791.066040,64.035660 
	C1789.726562,72.648018 1780.674194,83.936890 1771.312500,85.616524 
	C1764.172607,86.897537 1756.517456,87.158142 1749.415283,82.771912 
M1776.484009,72.011101 
	C1786.517090,61.207363 1782.728516,45.378330 1769.072754,41.046604 
	C1757.720947,37.445686 1745.168457,46.392170 1745.045532,58.368767 
	C1744.975708,65.169067 1747.728638,70.714836 1753.744751,74.267052 
	C1761.516968,78.856239 1768.950195,78.216911 1776.484009,72.011101 
z"/>
<path fill="#2796D3" opacity="1.000000" stroke="none" 
	d="
M1743.885254,394.041565 
	C1740.525024,387.368713 1734.928223,381.791962 1735.894043,373.180603 
	C1737.893555,355.353943 1754.204224,344.894379 1770.703735,348.762360 
	C1789.073120,353.068695 1796.915527,375.070770 1787.016235,390.646729 
	C1779.982178,401.714172 1769.401611,404.583893 1757.036499,402.449738 
	C1754.368286,401.989227 1751.854370,400.635254 1749.344482,399.183411 
	C1747.574829,397.129822 1745.729980,395.585693 1743.885254,394.041565 
M1749.959473,363.535309 
	C1748.324341,366.688477 1746.281128,369.706940 1745.182129,373.037048 
	C1744.292358,375.733459 1743.388672,379.383179 1744.502563,381.598633 
	C1747.530518,387.620300 1751.977539,392.608215 1759.347412,393.735382 
	C1769.643433,395.310059 1779.039917,390.795105 1781.857788,379.515808 
	C1783.953003,371.129059 1779.513306,362.954803 1771.854858,358.959717 
	C1764.477295,355.111115 1757.189331,356.490448 1749.959473,363.535309 
z"/>
<path fill="#2796D3" opacity="1.000000" stroke="none" 
	d="
M1743.939819,394.384674 
	C1745.729980,395.585693 1747.574829,397.129822 1749.158081,398.859985 
	C1747.262573,397.606628 1745.628418,396.167206 1743.939819,394.384674 
z"/>
<path fill="#000000" opacity="1.000000" stroke="none" 
	d="
M1999.976318,213.545029 
	C2000.016602,226.463989 1996.606323,231.711349 1985.971924,235.036331 
	C1973.493896,238.937790 1961.645386,226.723770 1963.100586,215.480515 
	C1964.744141,202.780502 1976.935059,195.575500 1988.924805,200.101151 
	C1994.821899,202.327118 1997.994263,207.318344 1999.976318,213.545029 
z"/>
<path fill="#000000" opacity="1.000000" stroke="none" 
	d="
M1776.223389,72.281013 
	C1768.950195,78.216911 1761.516968,78.856239 1753.744751,74.267052 
	C1747.728638,70.714836 1744.975708,65.169067 1745.045532,58.368767 
	C1745.168457,46.392170 1757.720947,37.445686 1769.072754,41.046604 
	C1782.728516,45.378330 1786.517090,61.207363 1776.223389,72.281013 
z"/>
<path fill="#000000" opacity="1.000000" stroke="none" 
	d="
M1750.215332,363.271027 
	C1757.189331,356.490448 1764.477295,355.111115 1771.854858,358.959717 
	C1779.513306,362.954803 1783.953003,371.129059 1781.857788,379.515808 
	C1779.039917,390.795105 1769.643433,395.310059 1759.347412,393.735382 
	C1751.977539,392.608215 1747.530518,387.620300 1744.502563,381.598633 
	C1743.388672,379.383179 1744.292358,375.733459 1745.182129,373.037048 
	C1746.281128,369.706940 1748.324341,366.688477 1750.215332,363.271027 
z"/>
</svg>