<svg width="66" height="66" viewBox="0 0 66 66" fill="none" xmlns="http://www.w3.org/2000/svg">
<g id="bi:laptop-fill" clip-path="url(#clip0_108_227)">
<path id="Vector" d="M9.78866 18.112C8.50595 18.4557 7.41232 19.2949 6.74834 20.4449C6.08436 21.5949 5.90443 22.9616 6.24813 24.2444L13.5917 51.6509L58.7319 39.5556L51.3883 12.1491C51.0446 10.8664 50.2055 9.77273 49.0554 9.10875C47.9054 8.44477 46.5387 8.26484 45.256 8.60854L9.78866 18.112ZM10.7994 54.127L62.3882 40.3038C62.7319 41.5865 62.552 42.9532 61.888 44.1033C61.224 45.2533 60.1304 46.0925 58.8477 46.4362L16.9317 57.6675C15.649 58.0112 14.2823 57.8313 13.1323 57.1673C11.9822 56.5034 11.1431 55.4097 10.7994 54.127Z" fill="#E68532"/>
</g>
<defs>
<clipPath id="clip0_108_227">
<rect width="53.4087" height="53.4087" fill="white" transform="translate(0 13.8232) rotate(-15)"/>
</clipPath>
</defs>
</svg>
