<svg width="73" height="73" viewBox="0 0 73 73" fill="none" xmlns="http://www.w3.org/2000/svg">
<g id="wpf:like" clip-path="url(#clip0_108_231)">
<path id="Vector" d="M41.4513 13.2998C36.8571 14.5308 33.8088 18.8574 32.2569 21.693C29.4951 20.0132 24.7007 17.7881 20.1087 19.0185C12.1937 21.1393 8.14619 28.137 10.2623 36.0344C12.594 44.7363 20.9639 48.5218 29.0609 52.1832C32.8843 53.9144 36.8401 55.7018 40.1173 57.9811C40.6681 58.3621 41.3582 58.4826 42.0026 58.3099L42.1297 58.2758C42.7764 58.1026 43.311 57.6516 43.5959 57.049C45.2987 53.4353 47.8281 49.9079 50.2764 46.4985C55.4564 39.282 60.8165 31.8174 58.4843 23.1134C56.3682 15.2159 49.3641 11.1795 41.4513 13.2998Z" fill="#DA4D67"/>
</g>
<defs>
<clipPath id="clip0_108_231">
<rect width="59" height="59" fill="white" transform="translate(0 15.2703) rotate(-15)"/>
</clipPath>
</defs>
</svg>
